<svg width="454" height="126" viewBox="0 0 454 126" fill="none" xmlns="http://www.w3.org/2000/svg">
<path d="M90.616 42.918H84.794V26.518C84.794 24.304 82.99 22.5 80.694 22.5C78.48 22.5 76.676 24.304 76.676 26.518V42.918H70.772C68.558 42.918 66.754 44.722 66.754 46.936C66.754 49.15 68.558 51.036 70.772 51.036H76.676V79.982C76.676 82.196 78.48 84.082 80.694 84.082C82.99 84.082 84.794 82.196 84.794 79.982V51.036H90.616C92.912 51.036 94.716 49.15 94.716 46.936C94.716 44.722 92.912 42.918 90.616 42.918ZM115.099 84C126.497 84 135.681 74.734 135.681 63.418C135.681 52.02 126.497 42.836 115.099 42.836C103.783 42.836 94.5168 52.02 94.5168 63.418C94.5168 74.734 103.783 84 115.099 84ZM115.099 50.954C121.987 50.954 127.563 56.53 127.563 63.418C127.563 70.224 121.987 75.882 115.099 75.882C108.211 75.882 102.635 70.224 102.635 63.418C102.635 56.53 108.211 50.954 115.099 50.954ZM198.059 59.4C198.059 50.38 190.679 43 181.577 43C176.657 43 172.229 45.132 169.195 48.658C166.161 45.132 161.733 43 156.813 43C147.711 43 140.331 50.38 140.331 59.4V80.064C140.331 82.36 142.135 84.164 144.431 84.164C146.645 84.164 148.449 82.36 148.449 80.064V59.4C148.449 54.808 152.221 51.118 156.813 51.118C161.405 51.118 165.095 54.808 165.095 59.4V80.064C165.095 82.36 166.981 84.164 169.195 84.164C171.409 84.164 173.213 82.36 173.213 80.064V59.4C173.213 54.808 176.985 51.118 181.577 51.118C186.169 51.118 189.941 54.808 189.941 59.4C189.941 59.564 189.941 59.646 189.941 59.728C189.941 59.892 189.941 59.974 189.941 60.138V80.064C189.941 82.36 191.745 84.164 193.959 84.164C196.173 84.164 198.059 82.36 198.059 80.064V60.138C198.059 59.974 198.059 59.892 197.977 59.728C198.059 59.646 198.059 59.564 198.059 59.4ZM207.132 84.082C209.346 84.082 211.15 82.278 211.15 79.982V46.936C211.15 44.722 209.346 42.918 207.132 42.918C204.836 42.918 203.032 44.722 203.032 46.936V79.982C203.032 82.278 204.836 84.082 207.132 84.082ZM207.132 34.718C208.198 34.718 209.264 34.308 210.002 33.57C210.74 32.832 211.15 31.766 211.15 30.7C211.15 29.634 210.74 28.568 210.002 27.83C209.264 27.092 208.198 26.6 207.132 26.6C206.066 26.6 205 27.092 204.262 27.83C203.524 28.568 203.032 29.634 203.032 30.7C203.032 31.766 203.524 32.832 204.262 33.57C205 34.308 206.066 34.718 207.132 34.718ZM236.335 84.082C243.387 84.082 249.865 80.556 253.637 74.652C254.867 72.766 254.375 70.224 252.489 68.994C250.603 67.846 248.061 68.338 246.831 70.224C244.535 73.832 240.599 75.964 236.335 75.964C229.529 75.964 223.871 70.306 223.871 63.5C223.871 56.612 229.529 51.036 236.335 51.036C240.845 51.036 244.945 53.414 247.159 57.268C248.307 59.154 250.767 59.81 252.735 58.744C254.621 57.596 255.359 55.136 254.211 53.168C250.521 46.854 243.715 42.918 236.335 42.918C225.019 42.918 215.835 52.102 215.835 63.5C215.835 74.816 225.019 84.082 236.335 84.082Z" fill="#196853"/>
<path d="M288.344 84C298.184 84 306.958 79.08 312.37 70.716C313.846 68.83 312.862 66.288 310.894 65.304C309.5 63.828 306.466 64.32 305.482 66.288C301.628 72.192 295.15 75.636 288.344 75.636C277.11 75.636 267.762 66.78 267.762 55.464C267.762 44.23 277.11 34.964 288.344 34.964C295.642 34.964 302.12 38.818 305.974 45.214C306.958 47.182 309.5 47.674 311.386 46.69C313.354 45.788 314.338 43.246 312.862 40.786C307.942 31.93 298.676 26.6 288.344 26.6C272.6 26.6 259.398 39.31 259.398 55.464C259.398 71.208 272.6 84 288.344 84ZM322.205 84.082C324.419 84.082 326.223 82.278 326.223 79.982V46.936C326.223 44.722 324.419 42.918 322.205 42.918C319.909 42.918 318.105 44.722 318.105 46.936V79.982C318.105 82.278 319.909 84.082 322.205 84.082ZM322.205 34.718C323.271 34.718 324.337 34.308 325.075 33.57C325.812 32.832 326.223 31.766 326.223 30.7C326.223 29.634 325.812 28.568 325.075 27.83C324.337 27.092 323.271 26.6 322.205 26.6C321.139 26.6 320.073 27.092 319.335 27.83C318.597 28.568 318.105 29.634 318.105 30.7C318.105 31.766 318.597 32.832 319.335 33.57C320.073 34.308 321.139 34.718 322.205 34.718ZM351.489 42.918C340.173 42.918 330.907 52.102 330.907 63.5V79.982C330.907 82.196 332.711 84.082 335.007 84.082C337.221 84.082 339.025 82.196 339.025 79.982V63.5C339.025 56.612 344.601 51.036 351.489 51.036C353.785 51.036 355.589 49.15 355.589 46.936C355.589 44.722 353.785 42.918 351.489 42.918ZM375.671 84.082C382.723 84.082 389.201 80.556 392.973 74.652C394.203 72.766 393.711 70.224 391.825 68.994C389.939 67.846 387.397 68.338 386.167 70.224C383.871 73.832 379.935 75.964 375.671 75.964C368.865 75.964 363.207 70.306 363.207 63.5C363.207 56.612 368.865 51.036 375.671 51.036C380.181 51.036 384.281 53.414 386.495 57.268C387.643 59.154 390.103 59.81 392.071 58.744C393.957 57.596 394.695 55.136 393.547 53.168C389.857 46.854 383.051 42.918 375.671 42.918C364.355 42.918 355.171 52.102 355.171 63.5C355.171 74.816 364.355 84.082 375.671 84.082ZM403.244 84.082C405.458 84.082 407.262 82.278 407.262 79.982V26.6C407.262 24.386 405.458 22.582 403.244 22.582C400.948 22.582 399.144 24.386 399.144 26.6V79.982C399.144 82.278 400.948 84.082 403.244 84.082ZM432.81 42.836C421.412 42.836 412.228 52.02 412.228 63.418C412.228 74.734 421.412 84 432.81 84C435.844 84 440.026 84.082 445.438 80.474C447.324 79.244 448.39 77.112 447.406 75.062C446.422 73.094 443.88 71.946 441.994 73.176C438.058 75.718 434.696 75.882 432.81 75.882C427.316 75.882 422.724 72.356 421.002 67.436H449.292C451.588 67.436 453.392 65.632 453.392 63.418C453.392 50.052 442.732 42.836 432.81 42.836ZM432.81 50.954C437.73 50.954 442.978 53.578 444.7 59.318H421.002C422.724 54.48 427.316 50.954 432.81 50.954Z" fill="#C60019"/>
<path d="M62 53C62 35.8792 48.1208 22 31 22C13.8792 22 0 35.8792 0 53C0 70.1208 13.8792 84 31 84H62V53Z" fill="#196853"/>
<path fill-rule="evenodd" clip-rule="evenodd" d="M62 53C62 35.8792 48.1208 22 31 22C22.491 22 14.7828 25.4282 9.18109 30.9788L24.1098 45.9074C25.303 44.6915 27.1041 44.0734 28.9847 44.582L36.5973 46.6408C41.2295 47.8935 41.6078 54.319 37.1545 56.1066C36.5063 56.3667 35.927 56.7568 35.4477 57.2454L62 83.7977V53ZM62 84H61.875L62 83.875V84Z" fill="#1EA836"/>
<circle cx="30.5" cy="52.5" r="19.5" fill="white"/>
<path d="M18.3098 46.4417C17.3023 42.7162 20.7162 39.3022 24.4417 40.3098L43.148 45.3687C47.7807 46.6216 48.159 53.0477 43.7053 54.8354L37.9309 57.1534C36.6649 57.6615 35.6616 58.6649 35.1534 59.9309L32.8355 65.7053C31.0477 70.159 24.6216 69.7807 23.3687 65.148L18.3098 46.4417Z" fill="#DC143C"/>
<path fill-rule="evenodd" clip-rule="evenodd" d="M19.5284 41.6747C18.3834 42.867 17.8162 44.617 18.3097 46.4417L23.3686 65.148C24.6215 69.7807 31.0476 70.159 32.8353 65.7053L35.1533 59.9309C35.3943 59.3305 35.7466 58.7892 36.1856 58.3318L19.5284 41.6747Z" fill="#C60019"/>
</svg>
