<?xml version="1.0" encoding="utf-8"?>
<!-- Generator: Adobe Illustrator 19.0.0, SVG Export Plug-In . SVG Version: 6.00 Build 0)  -->
<svg version="1.1" id="Layer_1" xmlns="http://www.w3.org/2000/svg" xmlns:xlink="http://www.w3.org/1999/xlink" x="0px" y="0px"
	 viewBox="0 0 2000 1500" style="enable-background:new 0 0 2000 1500;" xml:space="preserve">
<style type="text/css">
	.st0{fill:#0F1723;}
	.st1{fill:none;stroke:#2AA4EF;stroke-width:5;stroke-miterlimit:10;}
	.st2{fill:#FFFFFF;}
	.st3{fill:none;stroke:#4469B0;stroke-width:5;stroke-miterlimit:10;}
	.st4{fill:none;stroke:url(#XMLID_3_);stroke-width:5;stroke-miterlimit:10;}
	.st5{fill:none;stroke:#E84E8B;stroke-width:5;stroke-miterlimit:10;}
	.st6{fill:none;stroke:#0056FF;stroke-width:5;stroke-miterlimit:10;}
	.st7{opacity:0.3;fill:#FFFFFF;}
	.st8{font-family:'ArialMT';}
	.st9{font-size:21px;}
</style>
<rect class="st0" width="2000" height="1500"/>
<g id="XMLID_36_">
	<path id="XMLID_57_" class="st1" d="M475.1,635.5h-108c-33.1,0-60.2,27.7-60.2,61.5v105.5c0,33.8,27.1,61.5,60.2,61.5h108
		c33.1,0,60.2-27.7,60.2-61.5V697C535.3,663.2,508.2,635.5,475.1,635.5z"/>
	<path id="Twitter_1_" class="st2" d="M481.8,707.6c-4.7,2.8-9.8,4.9-15.3,6c-4.4-4.8-10.7-7.8-17.6-7.8
		c-13.3,0-24.1,11.1-24.1,24.8c0,1.9,0.2,3.8,0.6,5.6c-20.1-1-37.9-10.9-49.8-25.9c-2.1,3.7-3.3,7.9-3.3,12.5
		c0,8.6,4.3,16.2,10.7,20.6c-4-0.1-7.7-1.2-10.9-3.1v0.3c0,12,8.3,22,19.4,24.3c-2,0.6-4.2,0.9-6.4,0.9c-1.6,0-3.1-0.1-4.5-0.4
		c3.1,9.8,12,17,22.6,17.2c-8.3,6.6-18.7,10.6-30,10.6c-1.9,0-3.9-0.1-5.8-0.3c10.7,7,23.4,11.1,37,11.1c44.4,0,68.7-37.7,68.7-70.4
		c0-1.1,0-2.2-0.1-3.2c4.7-3.5,8.8-7.8,12-12.8c-4.3,2-9,3.3-13.9,3.9C476.1,718.3,480,713.4,481.8,707.6z"/>
</g>
<g id="XMLID_35_">
	<path id="XMLID_56_" class="st3" d="M764.7,635.5h-108c-33.1,0-60.2,27.7-60.2,61.5v105.5c0,33.8,27.1,61.5,60.2,61.5h108
		c33.1,0,60.2-27.7,60.2-61.5V697C824.9,663.2,797.8,635.5,764.7,635.5z"/>
	<path class="st2" d="M723.7,710.8H741v-26h-19.9c-28.2,0-27.6,22.8-27.6,26.2v17.1h-13.1v26h13.1c0,28.5,0,60.6,0,60.6h25.9
		c0,0,0-32.7,0-60.6h17.3l4.3-26h-21.6v-13C719.4,712.3,721,710.8,723.7,710.8z"/>
</g>
<g id="XMLID_2_">
	<linearGradient id="XMLID_3_" gradientUnits="userSpaceOnUse" x1="1098.4208" y1="847.8925" x2="902.1724" y2="651.6441">
		<stop  offset="0" style="stop-color:#FEC053"/>
		<stop  offset="0.3273" style="stop-color:#F2203E"/>
		<stop  offset="0.6485" style="stop-color:#B729A8"/>
		<stop  offset="1" style="stop-color:#5342D6"/>
	</linearGradient>
	<path id="XMLID_11_" class="st4" d="M886.1,695.8v108c0,33.1,27.7,60.2,61.5,60.2H1053c33.8,0,61.5-27.1,61.5-60.2v-108
		c0-33.1-27.7-60.2-61.5-60.2H947.6C913.7,635.5,886.1,662.6,886.1,695.8z"/>
	<g id="XMLID_112_">
		<path id="XMLID_117_" class="st2" d="M1032.1,682.5h-63.6c-19.5,0-35.4,16.3-35.4,36.2v62.1c0,19.9,16,36.2,35.4,36.2h63.6
			c19.5,0,35.4-16.3,35.4-36.2v-62.1C1067.5,698.8,1051.6,682.5,1032.1,682.5z M1055.5,779.9c0,13.8-11,25.1-24.5,25.1h-61.3
			c-13.5,0-24.5-11.3-24.5-25.1v-60.3c0-13.8,11-25.1,24.5-25.1l61.3,0c13.5,0,24.5,11.3,24.5,25.1V779.9z"/>
		<path id="XMLID_114_" class="st2" d="M1000.3,715.2c-18.7,0-33.8,15.5-33.8,34.5c0,19.1,15.1,34.5,33.8,34.5s33.8-15.5,33.8-34.5
			S1019,715.2,1000.3,715.2z M1000.3,772.1c-12,0-21.8-10-21.8-22.3c0-12.3,9.8-22.3,21.8-22.3c12,0,21.8,10,21.8,22.3
			C1022.1,762.1,1012.3,772.1,1000.3,772.1z"/>
		<ellipse id="XMLID_71_" class="st2" cx="1035.9" cy="713.4" rx="7.6" ry="7.8"/>
	</g>
</g>
<g id="XMLID_37_">
	<path id="XMLID_60_" class="st5" d="M1343.9,635.5h-108c-33.1,0-60.2,27.7-60.2,61.5v105.5c0,33.8,27.1,61.5,60.2,61.5h108
		c33.1,0,60.2-27.7,60.2-61.5V697C1404.1,663.2,1377,635.5,1343.9,635.5z"/>
	<path id="Dribbble_2_" class="st2" d="M1345.6,726.2c-1.5-3.6-3.4-7-5.6-10.3c-2.2-3.2-4.6-6.2-7.4-8.9c-2.7-2.7-5.7-5.2-9-7.4
		c-3.2-2.2-6.7-4.1-10.3-5.6c-3.7-1.5-7.5-2.7-11.4-3.5c-4-0.8-8.1-1.2-12.2-1.2c-4.1,0-8.2,0.4-12.2,1.2c-3.9,0.8-7.7,2-11.4,3.5
		c-3.6,1.5-7,3.4-10.3,5.6c-3.2,2.2-6.2,4.6-9,7.4c-2.7,2.7-5.2,5.7-7.4,8.9c-2.2,3.2-4.1,6.7-5.6,10.3c-1.6,3.7-2.7,7.5-3.5,11.4
		c-0.8,4-1.2,8.1-1.2,12.2c0,4.1,0.4,8.2,1.2,12.2c0.8,3.9,2,7.7,3.5,11.4c1.5,3.6,3.4,7.1,5.6,10.3c2.2,3.2,4.6,6.2,7.4,8.9
		c2.7,2.7,5.7,5.2,9,7.4c3.2,2.2,6.7,4.1,10.3,5.6c3.7,1.6,7.5,2.7,11.4,3.5c4,0.8,8.1,1.2,12.2,1.2c4.1,0,8.2-0.4,12.2-1.2
		c3.9-0.8,7.7-2,11.4-3.5c3.6-1.5,7-3.4,10.3-5.6c3.2-2.2,6.2-4.6,9-7.4c2.7-2.7,5.2-5.7,7.4-8.9c2.2-3.2,4.1-6.7,5.6-10.3
		c1.5-3.6,2.7-7.5,3.5-11.4c0.8-4,1.2-8.1,1.2-12.2c0-4.1-0.4-8.2-1.2-12.2C1348.4,733.7,1347.2,729.9,1345.6,726.2z M1289.9,698.1
		c13.1,0,25,4.9,34.1,12.9c-0.1,0.2-7.5,11.4-27,18.7c-8.8-16.2-18.5-29.1-19.3-30.1C1281.6,698.6,1285.7,698.1,1289.9,698.1z
		 M1277.5,699.6C1277.5,699.6,1277.5,699.6,1277.5,699.6c0,0-0.1,0-0.2,0C1277.4,699.6,1277.5,699.6,1277.5,699.6z M1267.9,703
		c0.7,0.9,10.2,13.9,19.2,29.8c-24.8,6.6-46.3,6.3-47.7,6.3C1242.7,723.1,1253.4,709.8,1267.9,703z M1251.5,784.3
		c-8.2-9.2-13.2-21.3-13.2-34.5c0-0.5,0-1.1,0-1.6c0.9,0,26.4,0.6,53-7.4c1.5,2.9,2.9,5.8,4.2,8.8c-0.7,0.2-1.4,0.4-2,0.6
		C1265.6,759.2,1251.4,784.3,1251.5,784.3C1251.4,784.3,1251.5,784.3,1251.5,784.3z M1289.9,801.4c-12.2,0-23.4-4.2-32.3-11.3
		c-0.2-0.1-0.4-0.3-0.7-0.5c0.3,0.2,0.5,0.4,0.7,0.5c0.3,0.2,0.5,0.4,0.5,0.4s9.9-21.6,40.5-32.3c0.1,0,0.2-0.1,0.3-0.1
		c7.3,18.9,10.3,34.7,11,39.2C1303.9,800,1297.1,801.4,1289.9,801.4z M1318.8,792.6c-0.5-3.1-3.3-18.3-10.1-36.9
		c16.7-2.7,31.1,1.9,32.2,2.3C1338.6,772.4,1330.4,784.8,1318.8,792.6z M1305.6,747.6c-0.4-0.9-0.7-1.8-1.1-2.7
		c-1.1-2.5-2.2-5-3.4-7.5c20.4-8.3,28.7-20.3,28.8-20.4c7.2,8.8,11.6,20,11.8,32.3C1340.8,749.1,1323.3,745.3,1305.6,747.6z"/>
</g>
<g id="XMLID_25_">
	<path id="XMLID_63_" class="st6" d="M1633.5,635.5h-108c-33.1,0-60.2,27.7-60.2,61.5v105.5c0,33.8,27.1,61.5,60.2,61.5h108
		c33.1,0,60.2-27.7,60.2-61.5V697C1693.7,663.2,1666.6,635.5,1633.5,635.5z"/>
	<g id="XMLID_125_">
		<path id="XMLID_94_" class="st2" d="M1572.7,745.8c2.8-1.4,4.9-2.9,6.3-4.6c2.6-3,3.8-7,3.8-12c0-4.8-1.3-9-3.8-12.4
			c-4.2-5.6-11.3-8.5-21.4-8.7h-39.9v81.5h37.2c4.2,0,8.1-0.4,11.7-1.1c3.6-0.7,6.7-2.1,9.3-4.1c2.3-1.7,4.3-3.9,5.8-6.4
			c2.5-3.8,3.7-8.2,3.7-13c0-4.7-1.1-8.7-3.2-11.9C1580.1,749.7,1577,747.3,1572.7,745.8z M1534.2,722.2h18c4,0,7.2,0.4,9.8,1.3
			c3,1.2,4.4,3.7,4.4,7.5c0,3.4-1.1,5.8-3.4,7.1c-2.2,1.3-5.2,2-8.7,2h-20.1V722.2z M1562.6,773.9c-2,1-4.8,1.4-8.4,1.4h-20.1v-21.7
			h20.3c3.5,0,6.3,0.5,8.3,1.4c3.5,1.6,5.3,4.5,5.3,8.7C1568.1,768.7,1566.3,772.1,1562.6,773.9z"/>
		<rect id="XMLID_93_" x="1603.2" y="711.8" class="st2" width="35.4" height="10.1"/>
		<path id="XMLID_90_" class="st2" d="M1646,739.4c-2.8-4.1-6.3-7-10.5-8.9c-4.3-1.9-9-2.8-14.4-2.8c-8.9,0-16.2,2.8-21.8,8.4
			c-5.6,5.6-8.4,13.6-8.4,24c0,11.1,3.1,19.2,9.3,24.1c6.2,4.9,13.4,7.4,21.5,7.4c9.8,0,17.5-2.9,23-8.8c3.5-3.7,5.5-7.3,5.9-10.9
			h-16.3c-0.9,1.8-2,3.1-3.3,4.1c-2.3,1.8-5.2,2.8-8.9,2.8c-3.4,0-6.4-0.8-8.8-2.3c-4-2.4-6.1-6.7-6.4-12.7h44.5
			c0.1-5.2-0.1-9.2-0.5-12C1650.1,747.1,1648.5,743,1646,739.4z M1607.3,753.4c0.6-3.9,2-7,4.3-9.3c2.3-2.3,5.4-3.4,9.5-3.4
			c3.8,0,6.9,1.1,9.5,3.2c2.5,2.2,4,5.3,4.3,9.5H1607.3z"/>
	</g>
</g>
<text transform="matrix(1 0 0 1 394.6739 923.4814)" class="st7 st8 st9">Twitter</text>
<text transform="matrix(1 0 0 1 669.8933 923.4814)" class="st7 st8 st9">Facebook</text>
<text transform="matrix(1 0 0 1 959.1504 923.4814)" class="st7 st8 st9">Instagram</text>
<text transform="matrix(1 0 0 1 1256.5642 923.4814)" class="st7 st8 st9">Dribbble</text>
<text transform="matrix(1 0 0 1 1544.0475 923.4814)" class="st7 st8 st9">Behance</text>
</svg>
